<svg width="145" height="96" viewBox="0 0 145 96" fill="none" xmlns="http://www.w3.org/2000/svg">
<g clip-path="url(#clip0)">
<path fill-rule="evenodd" clip-rule="evenodd" d="M49 21C49 18.6131 49.9482 16.3239 51.636 14.636C53.3239 12.9482 55.6131 12 58 12L112 12C114.387 12 116.676 12.9482 118.364 14.636C120.052 16.3239 121 18.6131 121 21V30H127.12C128.468 30.0012 129.799 30.3054 131.014 30.8901C132.23 31.4748 133.298 32.325 134.14 33.378L143.026 44.478C144.305 46.0751 145.001 48.0602 145 50.106V63C145 65.3869 144.052 67.6761 142.364 69.364C140.676 71.0518 138.387 72 136 72H133C133 75.1826 131.736 78.2348 129.485 80.4853C127.235 82.7357 124.183 84 121 84C117.817 84 114.765 82.7357 112.515 80.4853C110.264 78.2348 109 75.1826 109 72H79C79.0035 73.5995 78.6871 75.1836 78.0695 76.659C77.452 78.1345 76.5457 79.4716 75.4039 80.5918C74.2621 81.712 72.9079 82.5926 71.4209 83.1819C69.9339 83.7711 68.3441 84.0572 66.745 84.0232C65.1458 83.9892 63.5696 83.6358 62.109 82.9839C60.6484 82.3319 59.3328 81.3946 58.2397 80.2269C57.1466 79.0592 56.2979 77.6848 55.7436 76.1844C55.1893 74.684 54.9406 73.0879 55.012 71.49C53.2543 70.8713 51.7319 69.7224 50.6551 68.2016C49.5782 66.6809 48.9999 64.8634 49 63V21ZM56.764 65.736C57.8488 63.96 59.3771 62.4967 61.1986 61.4902C63.0201 60.4836 65.0722 59.9683 67.1532 59.9949C69.2341 60.0216 71.2724 60.5892 73.0675 61.6421C74.8627 62.6949 76.353 64.1968 77.392 66H110.608C111.663 64.1776 113.178 62.6634 115 61.608V21C115 20.2043 114.684 19.4413 114.121 18.8787C113.559 18.3161 112.796 18 112 18H58C57.2044 18 56.4413 18.3161 55.8787 18.8787C55.3161 19.4413 55 20.2043 55 21V63C54.9995 63.5774 55.1657 64.1427 55.4786 64.6281C55.7915 65.1134 56.2378 65.4981 56.764 65.736ZM121 60C123.106 60 125.176 60.5545 127 61.6078C128.824 62.661 130.339 64.1758 131.392 66H136C136.796 66 137.559 65.6839 138.121 65.1213C138.684 64.5587 139 63.7956 139 63V50.1C138.999 49.4192 138.766 48.759 138.34 48.228L129.46 37.128C129.179 36.7766 128.823 36.4928 128.418 36.2976C128.013 36.1023 127.57 36.0006 127.12 36H121V60ZM67 66C65.4087 66 63.8826 66.6321 62.7574 67.7574C61.6321 68.8826 61 70.4087 61 72C61 73.5913 61.6321 75.1174 62.7574 76.2426C63.8826 77.3679 65.4087 78 67 78C68.5913 78 70.1174 77.3679 71.2426 76.2426C72.3679 75.1174 73 73.5913 73 72C73 70.4087 72.3679 68.8826 71.2426 67.7574C70.1174 66.6321 68.5913 66 67 66ZM121 66C119.409 66 117.883 66.6321 116.757 67.7574C115.632 68.8826 115 70.4087 115 72C115 73.5913 115.632 75.1174 116.757 76.2426C117.883 77.3679 119.409 78 121 78C122.591 78 124.117 77.3679 125.243 76.2426C126.368 75.1174 127 73.5913 127 72C127 70.4087 126.368 68.8826 125.243 67.7574C124.117 66.6321 122.591 66 121 66Z" fill="white"/>
</g>
<path d="M43 43.5H17M43 31.5H8.5M43 55H23H3" stroke="white" stroke-width="5" stroke-linecap="round" stroke-linejoin="round"/>
<defs>
<clipPath id="clip0">
<rect width="96" height="96" fill="white" transform="translate(49)"/>
</clipPath>
</defs>
</svg>
