<svg xmlns="http://www.w3.org/2000/svg" width="512" height="512" viewBox="0 0 512 512" version="1.1">
	<path d="M 0 256.002 L 0 512.004 256.250 511.752 L 512.500 511.500 512.752 255.750 L 513.004 0 256.502 0 L 0 0 0 256.002 M 0.492 256.500 C 0.492 397.300, 0.608 454.751, 0.750 384.170 C 0.892 313.588, 0.892 198.388, 0.750 128.170 C 0.608 57.951, 0.492 115.700, 0.492 256.500 M 198.734 142.075 C 192.597 143.542, 187.497 146.628, 183.266 151.435 C 175.691 160.040, 175.902 157.413, 176.219 239.554 L 176.500 312.500 178.702 316.616 C 181.983 322.749, 185.395 326.401, 190.251 328.977 C 194.504 331.233, 194.627 331.441, 195.681 338.138 C 199.104 359.877, 218.781 374.718, 239.371 371.092 C 256.350 368.101, 269.739 354.439, 271.670 338.135 L 272.279 333 320.139 333 L 368 333 368 335.911 C 368 340.942, 371.617 350.711, 375.376 355.831 C 395.474 383.210, 438.218 372.714, 444.168 338.939 L 445.214 333 452.241 333 C 456.106 333, 460.965 332.492, 463.038 331.870 C 468.877 330.121, 475.950 324.125, 479.401 318 L 482.500 312.500 482.811 286.215 C 483.063 264.908, 482.832 258.935, 481.594 254.677 C 480.371 250.470, 476.810 245.343, 463.714 228.933 C 454.719 217.663, 445.617 207.005, 443.486 205.249 C 437.442 200.267, 432.340 199, 418.322 199 L 406 199 405.990 181.250 C 405.981 164.674, 405.823 163.163, 403.605 158.398 C 400.655 152.063, 395.774 147.093, 389.395 143.928 L 384.500 141.500 293.500 141.338 C 242.387 141.246, 200.850 141.570, 198.734 142.075 M 198.306 163.413 L 195.500 165.826 195.217 235.163 C 195.062 273.298, 195.186 305.524, 195.493 306.775 C 195.800 308.027, 196.945 309.945, 198.038 311.038 C 200.021 313.021, 200.038 313.012, 205.922 306.999 C 209.557 303.284, 214.059 299.923, 217.660 298.236 C 222.806 295.825, 224.691 295.500, 233.521 295.500 C 242.830 295.500, 244.017 295.734, 250.222 298.789 C 254.828 301.056, 258.577 303.928, 262.297 308.039 L 267.692 314 319.797 314 L 371.903 314 379.452 306.452 L 387 298.903 387 233.028 L 387 167.153 384.411 164.077 L 381.822 161 291.467 161 L 201.112 161 198.306 163.413 M 44.383 202.444 C 44.075 203.247, 44.114 204.376, 44.470 204.952 C 44.910 205.663, 63.463 206, 102.129 206 L 159.139 206 158.820 203.750 L 158.500 201.500 101.722 201.242 C 52.695 201.019, 44.867 201.183, 44.383 202.444 M 406 256.500 L 406 295 409.343 295 C 417.920 295, 430.622 301.850, 436.259 309.516 L 439.500 313.922 447.800 313.961 C 457.322 314.006, 461.109 312.565, 462.913 308.211 C 463.753 306.183, 464.017 298.517, 463.803 282.357 L 463.500 259.386 448.140 240.173 C 439.692 229.606, 431.830 220.294, 430.668 219.480 C 429.106 218.386, 425.615 218, 417.277 218 L 406 218 406 256.500 M 71.473 241.044 C 71.118 241.618, 71.372 242.743, 72.036 243.544 C 73.059 244.776, 79.605 245, 114.541 245 C 137.253 245, 156.548 244.727, 157.418 244.393 C 158.288 244.059, 159 242.934, 159 241.893 C 159 240.065, 157.515 240, 115.559 240 C 86.462 240, 71.905 240.345, 71.473 241.044 M 27.285 277.115 C 26.664 277.736, 26.394 278.864, 26.685 279.622 C 27.127 280.773, 38.058 281, 93.177 281 L 159.139 281 158.820 278.750 L 158.500 276.500 93.457 276.243 C 46.165 276.056, 28.106 276.294, 27.285 277.115 M 227.145 315.070 C 219.550 318.112, 214.910 324.894, 214.846 333.045 C 214.769 343.047, 221.773 350.985, 231.378 351.781 C 234.347 352.028, 238.372 351.702, 240.322 351.059 C 246.561 349, 252.989 339.836, 252.989 333 C 252.989 320.623, 238.455 310.540, 227.145 315.070 M 398.500 315.828 C 391.604 319.117, 386.975 326.132, 387.022 333.218 C 387.051 337.525, 390.031 343.830, 393.624 347.186 C 401.634 354.668, 414.816 353.352, 421.652 344.389 C 425.602 339.211, 426.191 329.891, 422.935 324.098 C 418.101 315.497, 407.041 311.754, 398.500 315.828" stroke="none" fill="black" fill-rule="evenodd"/>
</svg>